<mxfile host="Electron" agent="Mozilla/5.0 (Windows NT 10.0; Win64; x64) AppleWebKit/537.36 (KHTML, like Gecko) draw.io/26.0.4 Chrome/128.0.6613.186 Electron/32.2.5 Safari/537.36" version="26.0.4">
  <diagram name="Seite-1" id="EGFpPbwpN3NIDaKOlWR-">
    <mxGraphModel dx="1185" dy="694" grid="1" gridSize="10" guides="1" tooltips="1" connect="1" arrows="1" fold="1" page="1" pageScale="1" pageWidth="827" pageHeight="1169" math="0" shadow="0">
      <root>
        <mxCell id="0" />
        <mxCell id="1" parent="0" />
        <mxCell id="gWeBi3qP-7HGWclxHaz6-3" style="edgeStyle=orthogonalEdgeStyle;rounded=0;orthogonalLoop=1;jettySize=auto;html=1;entryX=0;entryY=0.5;entryDx=0;entryDy=0;" edge="1" parent="1" source="gWeBi3qP-7HGWclxHaz6-1" target="gWeBi3qP-7HGWclxHaz6-2">
          <mxGeometry relative="1" as="geometry" />
        </mxCell>
        <mxCell id="gWeBi3qP-7HGWclxHaz6-1" value="" style="shape=ellipse;html=1;fillColor=strokeColor;strokeWidth=2;verticalLabelPosition=bottom;verticalAlignment=top;perimeter=ellipsePerimeter;" vertex="1" parent="1">
          <mxGeometry x="250" y="300" width="20" height="20" as="geometry" />
        </mxCell>
        <mxCell id="gWeBi3qP-7HGWclxHaz6-7" style="edgeStyle=orthogonalEdgeStyle;rounded=0;orthogonalLoop=1;jettySize=auto;html=1;entryX=0;entryY=0.5;entryDx=0;entryDy=0;" edge="1" parent="1" source="gWeBi3qP-7HGWclxHaz6-2" target="gWeBi3qP-7HGWclxHaz6-8">
          <mxGeometry relative="1" as="geometry">
            <mxPoint x="590" y="310" as="targetPoint" />
          </mxGeometry>
        </mxCell>
        <mxCell id="gWeBi3qP-7HGWclxHaz6-2" value="send request for payment" style="rounded=1;whiteSpace=wrap;html=1;" vertex="1" parent="1">
          <mxGeometry x="320" y="280" width="120" height="60" as="geometry" />
        </mxCell>
        <mxCell id="gWeBi3qP-7HGWclxHaz6-4" value="Employee" style="swimlane;whiteSpace=wrap;html=1;" vertex="1" parent="1">
          <mxGeometry x="230" y="220" width="330" height="940" as="geometry" />
        </mxCell>
        <mxCell id="gWeBi3qP-7HGWclxHaz6-19" value="&lt;span style=&quot;font-size: 11px; text-wrap: nowrap; background-color: rgb(255, 255, 255);&quot;&gt;start dunning&lt;br&gt;procedure&lt;/span&gt;" style="rounded=1;whiteSpace=wrap;html=1;" vertex="1" parent="gWeBi3qP-7HGWclxHaz6-4">
          <mxGeometry x="90" y="160" width="120" height="60" as="geometry" />
        </mxCell>
        <mxCell id="gWeBi3qP-7HGWclxHaz6-5" value="Customer" style="swimlane;whiteSpace=wrap;html=1;" vertex="1" parent="1">
          <mxGeometry x="560" y="220" width="330" height="940" as="geometry" />
        </mxCell>
        <mxCell id="gWeBi3qP-7HGWclxHaz6-10" style="edgeStyle=orthogonalEdgeStyle;rounded=0;orthogonalLoop=1;jettySize=auto;html=1;entryX=0;entryY=0.5;entryDx=0;entryDy=0;entryPerimeter=0;" edge="1" parent="gWeBi3qP-7HGWclxHaz6-5" source="gWeBi3qP-7HGWclxHaz6-8" target="gWeBi3qP-7HGWclxHaz6-11">
          <mxGeometry relative="1" as="geometry">
            <mxPoint x="110" y="90" as="targetPoint" />
          </mxGeometry>
        </mxCell>
        <mxCell id="gWeBi3qP-7HGWclxHaz6-22" value="[pay]" style="edgeLabel;html=1;align=center;verticalAlign=middle;resizable=0;points=[];" vertex="1" connectable="0" parent="gWeBi3qP-7HGWclxHaz6-10">
          <mxGeometry x="0.1728" relative="1" as="geometry">
            <mxPoint x="-11" as="offset" />
          </mxGeometry>
        </mxCell>
        <mxCell id="gWeBi3qP-7HGWclxHaz6-8" value="" style="rhombus;whiteSpace=wrap;html=1;" vertex="1" parent="gWeBi3qP-7HGWclxHaz6-5">
          <mxGeometry x="20" y="70" width="40" height="40" as="geometry" />
        </mxCell>
        <mxCell id="gWeBi3qP-7HGWclxHaz6-11" value="" style="html=1;shape=mxgraph.sysml.actFinal;strokeWidth=2;verticalLabelPosition=bottom;verticalAlignment=top;" vertex="1" parent="gWeBi3qP-7HGWclxHaz6-5">
          <mxGeometry x="130" y="80" width="20" height="20" as="geometry" />
        </mxCell>
        <mxCell id="gWeBi3qP-7HGWclxHaz6-29" value="" style="rhombus;whiteSpace=wrap;html=1;" vertex="1" parent="gWeBi3qP-7HGWclxHaz6-5">
          <mxGeometry x="120" y="300" width="40" height="40" as="geometry" />
        </mxCell>
        <mxCell id="gWeBi3qP-7HGWclxHaz6-33" value="" style="html=1;shape=mxgraph.sysml.actFinal;strokeWidth=2;verticalLabelPosition=bottom;verticalAlignment=top;" vertex="1" parent="gWeBi3qP-7HGWclxHaz6-5">
          <mxGeometry x="20" y="310" width="20" height="20" as="geometry" />
        </mxCell>
        <mxCell id="gWeBi3qP-7HGWclxHaz6-34" style="edgeStyle=orthogonalEdgeStyle;rounded=0;orthogonalLoop=1;jettySize=auto;html=1;entryX=1;entryY=0.5;entryDx=0;entryDy=0;entryPerimeter=0;" edge="1" parent="gWeBi3qP-7HGWclxHaz6-5" source="gWeBi3qP-7HGWclxHaz6-29" target="gWeBi3qP-7HGWclxHaz6-33">
          <mxGeometry relative="1" as="geometry" />
        </mxCell>
        <mxCell id="gWeBi3qP-7HGWclxHaz6-35" value="[pay]" style="edgeLabel;html=1;align=center;verticalAlign=middle;resizable=0;points=[];" vertex="1" connectable="0" parent="gWeBi3qP-7HGWclxHaz6-34">
          <mxGeometry x="-0.0024" relative="1" as="geometry">
            <mxPoint as="offset" />
          </mxGeometry>
        </mxCell>
        <mxCell id="gWeBi3qP-7HGWclxHaz6-48" value="" style="rhombus;whiteSpace=wrap;html=1;" vertex="1" parent="gWeBi3qP-7HGWclxHaz6-5">
          <mxGeometry x="120" y="570" width="40" height="40" as="geometry" />
        </mxCell>
        <mxCell id="gWeBi3qP-7HGWclxHaz6-49" value="" style="html=1;shape=mxgraph.sysml.actFinal;strokeWidth=2;verticalLabelPosition=bottom;verticalAlignment=top;" vertex="1" parent="gWeBi3qP-7HGWclxHaz6-5">
          <mxGeometry x="20" y="580" width="20" height="20" as="geometry" />
        </mxCell>
        <mxCell id="gWeBi3qP-7HGWclxHaz6-50" style="edgeStyle=orthogonalEdgeStyle;rounded=0;orthogonalLoop=1;jettySize=auto;html=1;entryX=1;entryY=0.5;entryDx=0;entryDy=0;entryPerimeter=0;" edge="1" parent="gWeBi3qP-7HGWclxHaz6-5" source="gWeBi3qP-7HGWclxHaz6-48" target="gWeBi3qP-7HGWclxHaz6-49">
          <mxGeometry relative="1" as="geometry" />
        </mxCell>
        <mxCell id="gWeBi3qP-7HGWclxHaz6-51" value="[pay]" style="edgeLabel;html=1;align=center;verticalAlign=middle;resizable=0;points=[];" vertex="1" connectable="0" parent="gWeBi3qP-7HGWclxHaz6-50">
          <mxGeometry x="-0.0024" relative="1" as="geometry">
            <mxPoint as="offset" />
          </mxGeometry>
        </mxCell>
        <mxCell id="gWeBi3qP-7HGWclxHaz6-13" value="Dunning system" style="swimlane;whiteSpace=wrap;html=1;" vertex="1" parent="1">
          <mxGeometry x="890" y="220" width="330" height="940" as="geometry" />
        </mxCell>
        <mxCell id="gWeBi3qP-7HGWclxHaz6-26" value="" style="edgeStyle=orthogonalEdgeStyle;rounded=0;orthogonalLoop=1;jettySize=auto;html=1;" edge="1" parent="gWeBi3qP-7HGWclxHaz6-13" source="gWeBi3qP-7HGWclxHaz6-24" target="gWeBi3qP-7HGWclxHaz6-25">
          <mxGeometry relative="1" as="geometry" />
        </mxCell>
        <mxCell id="gWeBi3qP-7HGWclxHaz6-24" value="&lt;span style=&quot;font-size: 11px; text-wrap: nowrap; background-color: rgb(255, 255, 255);&quot;&gt;observe incoming&lt;br&gt;payments&lt;/span&gt;" style="rounded=1;whiteSpace=wrap;html=1;" vertex="1" parent="gWeBi3qP-7HGWclxHaz6-13">
          <mxGeometry x="105" y="210" width="120" height="60" as="geometry" />
        </mxCell>
        <mxCell id="gWeBi3qP-7HGWclxHaz6-37" value="" style="edgeStyle=orthogonalEdgeStyle;rounded=0;orthogonalLoop=1;jettySize=auto;html=1;" edge="1" parent="gWeBi3qP-7HGWclxHaz6-13" source="gWeBi3qP-7HGWclxHaz6-25" target="gWeBi3qP-7HGWclxHaz6-38">
          <mxGeometry relative="1" as="geometry">
            <mxPoint x="165" y="390" as="targetPoint" />
            <Array as="points">
              <mxPoint x="165" y="400" />
              <mxPoint x="165" y="400" />
            </Array>
          </mxGeometry>
        </mxCell>
        <mxCell id="gWeBi3qP-7HGWclxHaz6-25" value="&lt;span style=&quot;font-size: 11px; text-wrap: nowrap; background-color: rgb(255, 255, 255);&quot;&gt;send first&lt;br&gt;request for payment&lt;/span&gt;" style="rounded=1;whiteSpace=wrap;html=1;" vertex="1" parent="gWeBi3qP-7HGWclxHaz6-13">
          <mxGeometry x="105" y="290" width="120" height="60" as="geometry" />
        </mxCell>
        <mxCell id="gWeBi3qP-7HGWclxHaz6-41" style="edgeStyle=orthogonalEdgeStyle;rounded=0;orthogonalLoop=1;jettySize=auto;html=1;entryX=0.5;entryY=0;entryDx=0;entryDy=0;" edge="1" parent="gWeBi3qP-7HGWclxHaz6-13" source="gWeBi3qP-7HGWclxHaz6-38" target="gWeBi3qP-7HGWclxHaz6-40">
          <mxGeometry relative="1" as="geometry">
            <Array as="points">
              <mxPoint x="165" y="420" />
              <mxPoint x="245" y="420" />
            </Array>
          </mxGeometry>
        </mxCell>
        <mxCell id="gWeBi3qP-7HGWclxHaz6-42" style="edgeStyle=orthogonalEdgeStyle;rounded=0;orthogonalLoop=1;jettySize=auto;html=1;entryX=0.5;entryY=0;entryDx=0;entryDy=0;" edge="1" parent="gWeBi3qP-7HGWclxHaz6-13" source="gWeBi3qP-7HGWclxHaz6-38" target="gWeBi3qP-7HGWclxHaz6-39">
          <mxGeometry relative="1" as="geometry">
            <Array as="points">
              <mxPoint x="165" y="420" />
              <mxPoint x="85" y="420" />
            </Array>
          </mxGeometry>
        </mxCell>
        <mxCell id="gWeBi3qP-7HGWclxHaz6-38" value="" style="line;strokeWidth=3;fillColor=none;align=left;verticalAlign=middle;spacingTop=-1;spacingLeft=3;spacingRight=3;rotatable=0;labelPosition=right;points=[];portConstraint=eastwest;strokeColor=inherit;" vertex="1" parent="gWeBi3qP-7HGWclxHaz6-13">
          <mxGeometry x="145" y="400" width="40" height="8" as="geometry" />
        </mxCell>
        <mxCell id="gWeBi3qP-7HGWclxHaz6-46" style="edgeStyle=orthogonalEdgeStyle;rounded=0;orthogonalLoop=1;jettySize=auto;html=1;" edge="1" parent="gWeBi3qP-7HGWclxHaz6-13" source="gWeBi3qP-7HGWclxHaz6-39" target="gWeBi3qP-7HGWclxHaz6-44">
          <mxGeometry relative="1" as="geometry">
            <Array as="points">
              <mxPoint x="85" y="520" />
              <mxPoint x="165" y="520" />
            </Array>
          </mxGeometry>
        </mxCell>
        <mxCell id="gWeBi3qP-7HGWclxHaz6-39" value="&lt;span style=&quot;font-size: 11px; text-wrap: nowrap; background-color: rgb(255, 255, 255);&quot;&gt;calculate fine&lt;/span&gt;" style="rounded=1;whiteSpace=wrap;html=1;" vertex="1" parent="gWeBi3qP-7HGWclxHaz6-13">
          <mxGeometry x="25" y="440" width="120" height="60" as="geometry" />
        </mxCell>
        <mxCell id="gWeBi3qP-7HGWclxHaz6-40" value="&lt;span style=&quot;font-size: 11px; text-wrap: nowrap; background-color: rgb(255, 255, 255);&quot;&gt;add the penatly amount&lt;br&gt;to the total amount&lt;br&gt;&lt;/span&gt;" style="rounded=1;whiteSpace=wrap;html=1;" vertex="1" parent="gWeBi3qP-7HGWclxHaz6-13">
          <mxGeometry x="185" y="440" width="120" height="60" as="geometry" />
        </mxCell>
        <mxCell id="gWeBi3qP-7HGWclxHaz6-43" value="&lt;span style=&quot;font-size: 11px; text-wrap: nowrap; background-color: rgb(255, 255, 255);&quot;&gt;send second&lt;br&gt;request for payment&lt;/span&gt;" style="rounded=1;whiteSpace=wrap;html=1;" vertex="1" parent="gWeBi3qP-7HGWclxHaz6-13">
          <mxGeometry x="105" y="560" width="120" height="60" as="geometry" />
        </mxCell>
        <mxCell id="gWeBi3qP-7HGWclxHaz6-47" style="edgeStyle=orthogonalEdgeStyle;rounded=0;orthogonalLoop=1;jettySize=auto;html=1;entryX=0.5;entryY=0;entryDx=0;entryDy=0;" edge="1" parent="gWeBi3qP-7HGWclxHaz6-13" source="gWeBi3qP-7HGWclxHaz6-44" target="gWeBi3qP-7HGWclxHaz6-43">
          <mxGeometry relative="1" as="geometry">
            <Array as="points">
              <mxPoint x="165" y="550" />
              <mxPoint x="165" y="550" />
            </Array>
          </mxGeometry>
        </mxCell>
        <mxCell id="gWeBi3qP-7HGWclxHaz6-44" value="" style="line;strokeWidth=3;fillColor=none;align=left;verticalAlign=middle;spacingTop=-1;spacingLeft=3;spacingRight=3;rotatable=0;labelPosition=right;points=[];portConstraint=eastwest;strokeColor=inherit;" vertex="1" parent="gWeBi3qP-7HGWclxHaz6-13">
          <mxGeometry x="145" y="530" width="40" height="8" as="geometry" />
        </mxCell>
        <mxCell id="gWeBi3qP-7HGWclxHaz6-45" style="edgeStyle=orthogonalEdgeStyle;rounded=0;orthogonalLoop=1;jettySize=auto;html=1;" edge="1" parent="gWeBi3qP-7HGWclxHaz6-13" source="gWeBi3qP-7HGWclxHaz6-40" target="gWeBi3qP-7HGWclxHaz6-44">
          <mxGeometry relative="1" as="geometry">
            <Array as="points">
              <mxPoint x="245" y="520" />
              <mxPoint x="165" y="520" />
            </Array>
          </mxGeometry>
        </mxCell>
        <mxCell id="gWeBi3qP-7HGWclxHaz6-61" value="" style="edgeStyle=orthogonalEdgeStyle;rounded=0;orthogonalLoop=1;jettySize=auto;html=1;" edge="1" parent="gWeBi3qP-7HGWclxHaz6-13" target="gWeBi3qP-7HGWclxHaz6-64">
          <mxGeometry relative="1" as="geometry">
            <mxPoint x="165" y="620" as="sourcePoint" />
            <mxPoint x="165" y="660" as="targetPoint" />
            <Array as="points">
              <mxPoint x="165" y="670" />
              <mxPoint x="165" y="670" />
            </Array>
          </mxGeometry>
        </mxCell>
        <mxCell id="gWeBi3qP-7HGWclxHaz6-62" style="edgeStyle=orthogonalEdgeStyle;rounded=0;orthogonalLoop=1;jettySize=auto;html=1;entryX=0.5;entryY=0;entryDx=0;entryDy=0;" edge="1" parent="gWeBi3qP-7HGWclxHaz6-13" source="gWeBi3qP-7HGWclxHaz6-64" target="gWeBi3qP-7HGWclxHaz6-67">
          <mxGeometry relative="1" as="geometry">
            <Array as="points">
              <mxPoint x="165" y="690" />
              <mxPoint x="245" y="690" />
            </Array>
          </mxGeometry>
        </mxCell>
        <mxCell id="gWeBi3qP-7HGWclxHaz6-63" style="edgeStyle=orthogonalEdgeStyle;rounded=0;orthogonalLoop=1;jettySize=auto;html=1;entryX=0.5;entryY=0;entryDx=0;entryDy=0;" edge="1" parent="gWeBi3qP-7HGWclxHaz6-13" source="gWeBi3qP-7HGWclxHaz6-64" target="gWeBi3qP-7HGWclxHaz6-66">
          <mxGeometry relative="1" as="geometry">
            <Array as="points">
              <mxPoint x="165" y="690" />
              <mxPoint x="85" y="690" />
            </Array>
          </mxGeometry>
        </mxCell>
        <mxCell id="gWeBi3qP-7HGWclxHaz6-64" value="" style="line;strokeWidth=3;fillColor=none;align=left;verticalAlign=middle;spacingTop=-1;spacingLeft=3;spacingRight=3;rotatable=0;labelPosition=right;points=[];portConstraint=eastwest;strokeColor=inherit;" vertex="1" parent="gWeBi3qP-7HGWclxHaz6-13">
          <mxGeometry x="145" y="670" width="40" height="8" as="geometry" />
        </mxCell>
        <mxCell id="gWeBi3qP-7HGWclxHaz6-65" style="edgeStyle=orthogonalEdgeStyle;rounded=0;orthogonalLoop=1;jettySize=auto;html=1;" edge="1" parent="gWeBi3qP-7HGWclxHaz6-13" source="gWeBi3qP-7HGWclxHaz6-66" target="gWeBi3qP-7HGWclxHaz6-70">
          <mxGeometry relative="1" as="geometry">
            <Array as="points">
              <mxPoint x="85" y="790" />
              <mxPoint x="165" y="790" />
            </Array>
          </mxGeometry>
        </mxCell>
        <mxCell id="gWeBi3qP-7HGWclxHaz6-66" value="&lt;span style=&quot;font-size: 11px; text-wrap: nowrap; background-color: rgb(255, 255, 255);&quot;&gt;calculate fine&lt;br&gt;and interest&lt;/span&gt;" style="rounded=1;whiteSpace=wrap;html=1;" vertex="1" parent="gWeBi3qP-7HGWclxHaz6-13">
          <mxGeometry x="25" y="710" width="120" height="60" as="geometry" />
        </mxCell>
        <mxCell id="gWeBi3qP-7HGWclxHaz6-67" value="&lt;span style=&quot;font-size: 11px; text-wrap: nowrap; background-color: rgb(255, 255, 255);&quot;&gt;add the penatly amount&lt;br&gt;to the total amount&lt;br&gt;&lt;/span&gt;" style="rounded=1;whiteSpace=wrap;html=1;" vertex="1" parent="gWeBi3qP-7HGWclxHaz6-13">
          <mxGeometry x="185" y="710" width="120" height="60" as="geometry" />
        </mxCell>
        <mxCell id="gWeBi3qP-7HGWclxHaz6-68" value="&lt;span style=&quot;font-size: 11px; text-wrap: nowrap; background-color: rgb(255, 255, 255);&quot;&gt;start judical dunning&lt;br&gt;Procedure&lt;/span&gt;" style="rounded=1;whiteSpace=wrap;html=1;" vertex="1" parent="gWeBi3qP-7HGWclxHaz6-13">
          <mxGeometry x="105" y="830" width="120" height="60" as="geometry" />
        </mxCell>
        <mxCell id="gWeBi3qP-7HGWclxHaz6-69" style="edgeStyle=orthogonalEdgeStyle;rounded=0;orthogonalLoop=1;jettySize=auto;html=1;entryX=0.5;entryY=0;entryDx=0;entryDy=0;" edge="1" parent="gWeBi3qP-7HGWclxHaz6-13" source="gWeBi3qP-7HGWclxHaz6-70" target="gWeBi3qP-7HGWclxHaz6-68">
          <mxGeometry relative="1" as="geometry">
            <Array as="points">
              <mxPoint x="165" y="820" />
              <mxPoint x="165" y="820" />
            </Array>
          </mxGeometry>
        </mxCell>
        <mxCell id="gWeBi3qP-7HGWclxHaz6-70" value="" style="line;strokeWidth=3;fillColor=none;align=left;verticalAlign=middle;spacingTop=-1;spacingLeft=3;spacingRight=3;rotatable=0;labelPosition=right;points=[];portConstraint=eastwest;strokeColor=inherit;" vertex="1" parent="gWeBi3qP-7HGWclxHaz6-13">
          <mxGeometry x="145" y="800" width="40" height="8" as="geometry" />
        </mxCell>
        <mxCell id="gWeBi3qP-7HGWclxHaz6-71" style="edgeStyle=orthogonalEdgeStyle;rounded=0;orthogonalLoop=1;jettySize=auto;html=1;" edge="1" parent="gWeBi3qP-7HGWclxHaz6-13" source="gWeBi3qP-7HGWclxHaz6-67" target="gWeBi3qP-7HGWclxHaz6-70">
          <mxGeometry relative="1" as="geometry">
            <Array as="points">
              <mxPoint x="245" y="790" />
              <mxPoint x="165" y="790" />
            </Array>
          </mxGeometry>
        </mxCell>
        <mxCell id="gWeBi3qP-7HGWclxHaz6-20" style="edgeStyle=orthogonalEdgeStyle;rounded=0;orthogonalLoop=1;jettySize=auto;html=1;entryX=1;entryY=0.5;entryDx=0;entryDy=0;" edge="1" parent="1" source="gWeBi3qP-7HGWclxHaz6-8" target="gWeBi3qP-7HGWclxHaz6-19">
          <mxGeometry relative="1" as="geometry">
            <Array as="points">
              <mxPoint x="600" y="410" />
            </Array>
          </mxGeometry>
        </mxCell>
        <mxCell id="gWeBi3qP-7HGWclxHaz6-21" value="[customer don&#39;t pay]" style="edgeLabel;html=1;align=center;verticalAlign=middle;resizable=0;points=[];" vertex="1" connectable="0" parent="gWeBi3qP-7HGWclxHaz6-20">
          <mxGeometry x="0.2294" y="-1" relative="1" as="geometry">
            <mxPoint as="offset" />
          </mxGeometry>
        </mxCell>
        <mxCell id="gWeBi3qP-7HGWclxHaz6-23" style="edgeStyle=orthogonalEdgeStyle;rounded=0;orthogonalLoop=1;jettySize=auto;html=1;entryX=0.008;entryY=0.498;entryDx=0;entryDy=0;entryPerimeter=0;" edge="1" parent="1" source="gWeBi3qP-7HGWclxHaz6-19" target="gWeBi3qP-7HGWclxHaz6-24">
          <mxGeometry relative="1" as="geometry">
            <mxPoint x="990" y="460" as="targetPoint" />
            <Array as="points">
              <mxPoint x="380" y="460" />
              <mxPoint x="995" y="460" />
            </Array>
          </mxGeometry>
        </mxCell>
        <mxCell id="gWeBi3qP-7HGWclxHaz6-28" value="" style="edgeStyle=orthogonalEdgeStyle;rounded=0;orthogonalLoop=1;jettySize=auto;html=1;entryX=1;entryY=0.5;entryDx=0;entryDy=0;" edge="1" parent="1" source="gWeBi3qP-7HGWclxHaz6-25" target="gWeBi3qP-7HGWclxHaz6-29">
          <mxGeometry relative="1" as="geometry">
            <mxPoint x="895" y="540" as="targetPoint" />
          </mxGeometry>
        </mxCell>
        <mxCell id="gWeBi3qP-7HGWclxHaz6-52" value="" style="edgeStyle=orthogonalEdgeStyle;rounded=0;orthogonalLoop=1;jettySize=auto;html=1;entryX=1;entryY=0.5;entryDx=0;entryDy=0;exitX=0;exitY=0.5;exitDx=0;exitDy=0;" edge="1" parent="1" target="gWeBi3qP-7HGWclxHaz6-48" source="gWeBi3qP-7HGWclxHaz6-43">
          <mxGeometry relative="1" as="geometry">
            <mxPoint x="995" y="810" as="sourcePoint" />
            <mxPoint x="895" y="810" as="targetPoint" />
          </mxGeometry>
        </mxCell>
      </root>
    </mxGraphModel>
  </diagram>
</mxfile>
